inDegrees=no
num_controls=7
num_derivatives=13
num_iterations=138
num_multipliers=7
num_parameters=0
num_slacks=7
num_states=26
objective=5.185245
objective_accelerations=0.247471
objective_balance=0.004908
objective_effort=0.292514
objective_height=4.528723
objective_ligament=0.111629
solver_duration=1228.808123
status=Solve_Succeeded
success=true
DataType=double
version=3
OpenSimVersion=4.4-2022-07-23-0e9fedc
endheader
time	/jointset/ground_pelvis/pelvis_tilt/value	/jointset/ground_pelvis/pelvis_tx/value	/jointset/ground_pelvis/pelvis_ty/value	/jointset/hip_r/hip_flexion_r/value	/jointset/hip_r/hip_adduction_r/value	/jointset/hip_r/hip_rotation_r/value	/jointset/back/lumbar_extension/value	/jointset/patellofemoral_r/patellar_flexion_r/value	/jointset/knee_r/knee_flexion_r/value	/jointset/knee_r/knee_adduction_r/value	/jointset/knee_r/knee_rotation_r/value	/jointset/ankle_r/ankle_angle_r/value	/jointset/subtalar_r/subtalar_angle_r/value	/jointset/ground_pelvis/pelvis_tilt/speed	/jointset/ground_pelvis/pelvis_tx/speed	/jointset/ground_pelvis/pelvis_ty/speed	/jointset/hip_r/hip_flexion_r/speed	/jointset/hip_r/hip_adduction_r/speed	/jointset/hip_r/hip_rotation_r/speed	/jointset/back/lumbar_extension/speed	/jointset/patellofemoral_r/patellar_flexion_r/speed	/jointset/knee_r/knee_flexion_r/speed	/jointset/knee_r/knee_adduction_r/speed	/jointset/knee_r/knee_rotation_r/speed	/jointset/ankle_r/ankle_angle_r/speed	/jointset/subtalar_r/subtalar_angle_r/speed	/forceset/tau_hip_flexion_r	/forceset/tau_hip_adduction_r	/forceset/tau_hip_rotation_r	/forceset/tau_knee_flexion_r	/forceset/tau_ankle_angle_r	/forceset/tau_subtalar_angle_r	/forceset/tau_lumbar_extension	lambda_cid13_p0	lambda_cid14_p0	lambda_cid14_p1	lambda_cid14_p2	lambda_cid14_p3	lambda_cid14_p4	lambda_cid14_p5	/jointset/ground_pelvis/pelvis_tilt/accel	/jointset/ground_pelvis/pelvis_tx/accel	/jointset/ground_pelvis/pelvis_ty/accel	/jointset/hip_r/hip_flexion_r/accel	/jointset/hip_r/hip_adduction_r/accel	/jointset/hip_r/hip_rotation_r/accel	/jointset/back/lumbar_extension/accel	/jointset/patellofemoral_r/patellar_flexion_r/accel	/jointset/knee_r/knee_flexion_r/accel	/jointset/knee_r/knee_adduction_r/accel	/jointset/knee_r/knee_rotation_r/accel	/jointset/ankle_r/ankle_angle_r/accel	/jointset/subtalar_r/subtalar_angle_r/accel	gamma_cid13_p0	gamma_cid14_p0	gamma_cid14_p1	gamma_cid14_p2	gamma_cid14_p3	gamma_cid14_p4	gamma_cid14_p5
0	-0.0004543086406392469	0.128118160177864	0.9343424069510351	0.1934208783645156	-0.2163857111916676	-0.2489985324785594	-0.2903791543005566	0.2311793314021608	0.2311793314021609	0.1060914587004842	0.1734118766817924	0.08934340440958972	0.07861931538442397	0	0	0	0	0	0	0	0	0	0	0	0	0	0.09477212530277397	-0.0499292360771172	-0.001037229032922666	-0.2397769292590873	0.1230646826884987	-0.0658887088742964	-0.01222958153067501	-29.87072949953494	-6.581945248500726	-25.15450982609644	-0.8373704355389434	-3.257958452086838	-625.4103124800564	53.33235022400266	-0.8079074742170779	-1.3168341443544	-0.5205248675151865	6.072994278420834	0.01842025199897185	1.393311995229399	-5.659740522025582	6.432899106853454	6.432899106853426	-1.779365478658352	0.1650455788287076	1.612498478721381	0.4923525827102589	1.38264609750906e-08	1.115851585983037e-08	-1.000091497181215e-07	7.86772737059698e-08	1.396092662655214e-09	6.911809898153326e-08	-8.995785896933122e-08
0.01	-0.0004913301428332024	0.1280532437552256	0.9343171729316433	0.1937161426757878	-0.2163836214702099	-0.2489287502380415	-0.2906614680752427	0.2314939551538328	0.2314939551538998	0.1060020239812982	0.1734176266374235	0.08942229237655638	0.07864485426350643	-0.007395093443915968	-0.01290804066714563	-0.005026899790153963	0.05876149572096506	0.0004214627484788387	0.01391236216803412	-0.05606045729387167	0.06257937696741599	0.06257937696741471	-0.01779433143145894	0.001102394958403991	0.01569406702939037	0.005087868069310991	0.09115858863631861	-0.05824875419131671	-0.0007322110719219829	-0.2361578638093982	0.1163745897416355	-0.05709348805116518	-0.008936895233975865	-29.87418447726307	-8.276992604273135	-21.4181620457844	-1.676770951783992	-2.927472064414725	-626.8295191235524	60.86077287883442	-0.7039301860412844	-1.266502169100281	-0.4907730979725346	5.734022341151482	0.05453485072941135	1.383601650824343	-5.518853687212834	6.118648220371629	6.118648220371584	-1.765583984774499	0.07571266257640975	1.535334370633892	0.5140112581671565	2.171413078311672e-08	8.097025168584413e-09	-1.429680557945781e-07	9.681493533036441e-08	1.06277507369162e-08	1.503059732319525e-08	-1.17441299668516e-07
0.02	-0.0006020265607867966	0.1278615042976751	0.9342422698017098	0.1945902809687002	-0.2163772120083695	-0.2487211637111678	-0.2914923174936907	0.2324240109209846	0.2324240109209897	0.1057374225456561	0.1734329757842158	0.0896556157249486	0.07872067329110666	-0.01473498315031063	-0.02536460698241638	-0.009933822108339034	0.1157747963306928	0.0008639480753300207	0.02756085726544011	-0.1097071287535609	0.1230864030822802	0.1230864030822781	-0.03503334323826644	0.001919838246013474	0.0308870762822126	0.01005602970362681	0.0875450519697543	-0.06656827230577654	-0.0004271931113554816	-0.232538798359748	0.1096844967946652	-0.04829826722838179	-0.00564420893726577	-29.88421038200485	-9.923019101017324	-17.6838618501922	-2.503701754540447	-2.576793476680939	-627.4660448063784	68.22167965142837	-0.7968667267130857	-1.226539273979247	-0.4965293731214268	5.723355256173456	0.02262476767343639	1.34053858110378	-5.176983355189313	6.018428936343112	6.018428936343171	-1.668301553728077	0.1080552446697868	1.512286923407963	0.4684112957112897	2.960180059114283e-08	5.035534477338459e-09	-1.859269618710346e-07	1.14952596954759e-07	1.98594088111772e-08	-3.905690433514277e-08	-1.449247403677008e-07
0.03	-0.0007858457604472013	0.1275475539251024	0.9341187260800551	0.1960260485117868	-0.2163667078787039	-0.2483788374113784	-0.2928479368976702	0.2339496334891756	0.2339496334891085	0.1053039233547261	0.1734558405390737	0.09003876292874329	0.07884517163583053	-0.02199578600188548	-0.03733970246916077	-0.01476791800807089	0.1710792228284967	0.001206798488568888	0.0408333450282003	-0.1610767362224986	0.1817647876513106	0.1817647876513191	-0.0515188639815878	0.002658737364216158	0.04569883209140997	0.01479535469068828	0.08429009433686147	-0.06285387125493662	-0.0003117511135670827	-0.2304541215190306	0.1082377546695542	-0.04958589775135212	-0.002636556662155452	-29.90037703025642	-10.47381827752814	-18.35413475089348	-2.380149322729733	-2.848654499269915	-628.0494927929088	66.27394673591576	-0.6857238340956456	-1.170125916786259	-0.4758070961984381	5.389064587661359	0.0355977070141283	1.309969801166398	-5.065947070313327	5.751538830146771	5.751538830148226	-1.61655081716093	0.05767429035757363	1.459094567878236	0.4694348370485917	2.798589609136092e-08	-4.472049525928859e-10	-1.663845840382088e-07	1.007358581378327e-07	2.326318778690918e-08	-8.630419280404421e-08	-1.280521990916753e-07
0.04	-0.001041280342586369	0.1271164263515094	0.9339470499198443	0.1980058759680761	-0.2163536787391651	-0.2479059130485172	-0.2947070519018536	0.2360538390255936	0.236053839025599	0.1047099942599989	0.1734862676941958	0.090568722622262	0.07901561157779362	-0.02905805964213304	-0.04880004718645317	-0.01956030981951832	0.2245867789694286	0.001368950056354036	0.05368046988313663	-0.2104062487941499	0.2388029967389045	0.2388029967389167	-0.06711932402598665	0.003432318280884681	0.06024957422870583	0.01924434915154926	0.08103513670425559	-0.05913947020394244	-0.0001963091152367075	-0.2283694446781635	0.1067910125445555	-0.0508735282741074	0.0003710956130769802	-29.92216303489814	-10.97971922457312	-19.02740819840915	-2.243711362062894	-3.106448030616667	-627.9153457609393	64.17136983328328	-0.757160884447947	-1.123589120088634	-0.4881885554645607	5.363981184799123	-0.01351500141731605	1.255465999539028	-4.768964375732257	5.690393840055838	5.690393840054501	-1.491289413943559	0.11499160436292	1.460084189027915	0.410345190471255	2.617404160585101e-08	-5.979867036930116e-09	-1.455535199392122e-07	8.585201828087906e-08	2.654680430700139e-08	-1.334104459494521e-07	-1.102651014862641e-07
0.05	-0.001366579590933488	0.1265730115673931	0.933727561437002	0.20051233434857	-0.2163399425400867	-0.2473067511121537	-0.2970490961578169	0.2387201500879133	0.2387201500879861	0.1039645846562747	0.1735246451271141	0.09124246109294082	0.0792289552648562	-0.03597070548212288	-0.05982224475427328	-0.02433604334917899	0.2764345290606573	0.001369696625608489	0.06610017326414547	-0.2576685555421541	0.2941653178181254	0.2941653178181123	-0.08184773648803477	0.004207591523840027	0.07441661620598486	0.02339143586364091	0.07656291689316228	-0.05755022191001647	5.968537385641903e-05	-0.2244260793505848	0.1014251881946634	-0.04914075275533467	0.004175126721078019	-29.9490497607579	-12.59657778818999	-18.48794637704633	-2.409693369612537	-2.483386771451111	-628.12418989662	64.42042283151699	-0.6536490223786554	-1.082430006152641	-0.4720913045569219	5.054618891294142	0.005577878165699103	1.227478906960862	-4.654756796511611	5.41506133435473	5.415061334351734	-1.446401637459758	0.05347579737552345	1.382791633316578	0.4119352303542223	2.511016783400183e-08	-1.083802670222138e-08	-1.364995142671235e-07	6.017879685062983e-08	2.979984008862022e-08	-1.752010290315124e-07	-8.767010088900305e-08
0.06	-0.001760071815403773	0.1259211958213939	0.9334603505082953	0.2035291596239758	-0.216326457196912	-0.2465849408620514	-0.2998537420756904	0.2419312663796124	0.2419312663796177	0.1030753340328661	0.1735697114149446	0.09205542546964536	0.07948277878279432	-0.04269665486629037	-0.07048023956302504	-0.02910479899237377	0.3266601579522925	0.00131877887766318	0.07821013262833713	-0.3029265811772601	0.3477640425973327	0.3477640425972998	-0.09588752795503064	0.004770089291345384	0.08809475543280745	0.02734031532676581	0.0720906970820548	-0.05596097361620848	0.0003156798622419427	-0.2204827140229873	0.09605936384473089	-0.04740797723670744	0.007979157829115416	-29.98025913628646	-14.17196361071765	-17.9497900827536	-2.565681427030266	-1.855521145138017	-627.679863290478	64.53893339095178	-0.7198215932837968	-1.050748568274715	-0.4867929781714034	5.039556944880461	-0.02384786485730748	1.193517196175638	-4.368108153152813	5.337674580053118	5.337674580052904	-1.353565214933059	0.0724365092728884	1.362303638936913	0.3707037406779546	2.407778798693836e-08	-1.566778626565808e-08	-1.279413847393257e-07	3.405128566992608e-08	3.305158826019805e-08	-2.167677944266948e-07	-6.487266227103258e-08
0.07000000000000001	-0.00222009481740759	0.1251646499034545	0.9331453791153791	0.2070404569423067	-0.2163140050387231	-0.2457437572038869	-0.3031009650869458	0.2456699197201802	0.2456699197201916	0.1020496287532263	0.1736197089705662	0.09300282511913435	0.0797748067427516	-0.04927475636119474	-0.08076456910645212	-0.03389463262698303	0.3753326142326014	0.001160368955594821	0.08995460864573539	-0.3462092424448568	0.3996923044913059	0.3996923044912764	-0.1091367557963277	0.005215402568117485	0.1013158737594919	0.03103330670518159	0.06767697646998395	-0.05385413839410395	0.0005459275138615325	-0.2174006449238045	0.09188373692387281	-0.04619130187697731	0.01175357050200764	-30.01500565175589	-15.41006294609137	-17.60536843396381	-2.658059207517216	-1.494879152940115	-627.4861923976749	64.29557353099788	-0.621819726460901	-1.007612259162042	-0.4758953689702911	4.741088600863183	-0.01353771669579307	1.154123174850503	-4.262028319794243	5.079249037625225	5.079249037625788	-1.293101162219693	0.02848344976827889	1.291623690160052	0.3637855947120029	1.96353805970836e-08	-2.112939041653931e-08	-1.001413622303682e-07	-9.165604141735324e-09	3.399412892776189e-08	-2.519377568792786e-07	-2.343179250979257e-08
0.08	-0.002744901894125383	0.1243071932677238	0.932782346023543	0.2110304785496833	-0.2163034770119306	-0.2447872867114683	-0.3067717513521203	0.2499196250883755	0.2499196250883768	0.1008949312763028	0.173673740601606	0.09408035750402101	0.08010280236815004	-0.05565346981078934	-0.09066238312128669	-0.03871713877627669	0.4224050157632152	0.0009339526010050667	0.1012674994762802	-0.3876392319617144	0.4499744481275124	0.4499744481274873	-0.1216859673772635	0.005576904360433198	0.1141213025112095	0.0345338484151323	0.06326325585775354	-0.05174730317210414	0.0007761751657691243	-0.2143185758247366	0.0877081100029401	-0.04497462651740121	0.01552798317484096	-30.05239354956868	-16.61052065120078	-17.26187867032811	-2.741695638432858	-1.137275217368537	-626.7042179056145	63.94576490973112	-0.6799439842221298	-0.973445462555959	-0.493327481108304	4.71954599494145	-0.03744915136162651	1.107200158805026	-3.997573803005178	5.008450928499735	5.008450928499736	-1.213561962860708	0.05567421238156933	1.279165723943837	0.3322138069849708	1.497297143027458e-08	-2.663175873435244e-08	-7.10999272710134e-08	-5.348503451023263e-08	3.47876884660345e-08	-2.866950223678238e-07	1.921187926069059e-08
